<svg width="1400" height="724" viewBox="0 0 1400 724" fill="none" xmlns="http://www.w3.org/2000/svg">
<g clip-path="url(#clip0_126_169)">
<g filter="url(#filter0_f_126_169)">
<circle cx="548.401" cy="548.401" r="548.401" transform="matrix(-1 0 0 1 1622.14 67.5505)" fill="#1D1D1D"/>
</g>
<g opacity="0.85" filter="url(#filter1_f_126_169)">
<mask id="mask0_126_169" style="mask-type:alpha" maskUnits="userSpaceOnUse" x="660" y="-15" width="899" height="900">
<circle cx="449.424" cy="449.424" r="449.424" transform="matrix(-1 0 0 1 1558.99 -14.4075)" fill="white"/>
</mask>
<g mask="url(#mask0_126_169)">
<g filter="url(#filter2_f_126_169)">
<circle cx="510.781" cy="510.781" r="510.781" transform="matrix(-1 0 0 1 1620.35 -75.7637)" fill="#AD45E9"/>
</g>
<g filter="url(#filter3_f_126_169)">
<path d="M1477.14 400.995C1493.79 392.172 1506.89 394.705 1524.23 399.231C1524.23 399.231 1550.83 400.434 1557.76 404.494C1586.44 421.29 1594.28 467.406 1587.64 496.925C1580.19 529.993 1593.69 570.95 1579.8 601.856C1553.85 659.584 1558.63 785.272 1524.23 838.844C1471.15 921.515 1380.54 940.277 1280.89 959.441C1204.41 974.147 1086.18 952.061 1009.32 941.887C929.286 931.291 849.723 902.505 796.56 838.844C772.437 809.959 737.041 754.744 761.975 715.808C771.858 700.376 796.496 701.863 812.286 702.088C840.703 702.492 869.015 707.204 897.13 710.954C949.873 717.988 1002.71 722.752 1055.38 712.709C1118.88 700.6 1186.41 681.989 1239.97 644.367C1273.51 620.812 1303.98 588.906 1329.59 556.952C1372.97 502.814 1413.61 434.652 1477.14 400.995Z" fill="white"/>
</g>
<g filter="url(#filter4_f_126_169)">
<circle cx="489.059" cy="489.059" r="489.059" transform="matrix(-1 0 0 1 1444.34 -306.858)" fill="#242424"/>
</g>
</g>
</g>
<g filter="url(#filter5_f_126_169)">
<circle cx="529.591" cy="529.591" r="529.591" transform="matrix(-1 0 0 1 1229.37 -815.175)" fill="#4000FF" fill-opacity="0.43"/>
</g>
<g opacity="0.64">
<g opacity="0.8" filter="url(#filter6_f_126_169)">
<path d="M190.331 -524.377L159.68 -493.653L698.691 44.0736L1074.71 401.155L729.342 13.35L190.331 -524.377Z" fill="url(#paint0_linear_126_169)"/>
</g>
<g opacity="0.8" filter="url(#filter7_f_126_169)">
<path d="M357.792 -690.548L323.886 -663.459L799.127 -68.6235L1132.68 328.411L833.032 -95.7122L357.792 -690.548Z" fill="url(#paint1_linear_126_169)"/>
</g>
<g style="mix-blend-mode:soft-light" opacity="0.8" filter="url(#filter8_f_126_169)">
<path d="M-10.7915 -527.832L-38.6246 -494.534L545.539 -6.23469L951.466 316.436L573.372 -39.532L-10.7915 -527.832Z" fill="url(#paint2_linear_126_169)"/>
</g>
<g style="mix-blend-mode:overlay" filter="url(#filter9_f_126_169)">
<path d="M336.586 -572.987L302.681 -545.898L777.921 48.938L1111.47 445.973L811.827 21.8493L336.586 -572.987Z" fill="url(#paint3_linear_126_169)"/>
</g>
<g opacity="0.8" filter="url(#filter10_f_126_169)">
<path d="M198.016 -531.459L166.869 -501.24L697.031 45.2132L1067.17 408.385L728.179 14.994L198.016 -531.459Z" fill="url(#paint4_linear_126_169)"/>
</g>
<g opacity="0.8" filter="url(#filter11_f_126_169)">
<path d="M357.792 -690.548L323.886 -663.46L799.127 -68.6236L1132.68 328.411L833.032 -95.7124L357.792 -690.548Z" fill="url(#paint5_linear_126_169)"/>
</g>
<g style="mix-blend-mode:overlay" filter="url(#filter12_f_126_169)">
<path d="M336.586 -572.987L302.681 -545.898L777.921 48.938L1111.47 445.973L811.827 21.8493L336.586 -572.987Z" fill="url(#paint6_linear_126_169)"/>
</g>
<g opacity="0.8">
<g opacity="0.8" filter="url(#filter13_f_126_169)">
<path d="M184.908 -519.239L154.619 -488.16L699.867 43.2418L1080.02 395.912L730.157 12.1627L184.908 -519.239Z" fill="url(#paint7_linear_126_169)"/>
</g>
<g opacity="0.8" filter="url(#filter14_f_126_169)">
<path d="M357.792 -690.548L323.886 -663.459L799.127 -68.6235L1132.68 328.411L833.032 -95.7122L357.792 -690.548Z" fill="url(#paint8_linear_126_169)"/>
</g>
<g style="mix-blend-mode:overlay" filter="url(#filter15_f_126_169)">
<path d="M336.586 -572.987L302.68 -545.898L777.92 48.938L1111.47 445.973L811.826 21.8493L336.586 -572.987Z" fill="url(#paint9_linear_126_169)"/>
</g>
</g>
<g opacity="0.8" filter="url(#filter16_f_126_169)">
<path d="M209.152 -541.321L177.31 -511.834L694.634 46.7887L1056.23 418.461L726.476 17.3012L209.152 -541.321Z" fill="url(#paint10_linear_126_169)"/>
</g>
<g opacity="0.8" filter="url(#filter17_f_126_169)">
<path d="M298.9 -611.728L264.994 -584.64L740.234 10.1963L1073.79 407.231L774.14 -16.8924L298.9 -611.728Z" fill="url(#paint11_linear_126_169)"/>
</g>
<g opacity="0.8" filter="url(#filter18_f_126_169)">
<path d="M377.55 -675.025L343.644 -647.936L818.884 -53.1006L1152.44 343.934L852.79 -80.1893L377.55 -675.025Z" fill="url(#paint12_linear_126_169)"/>
</g>
<g style="mix-blend-mode:overlay" filter="url(#filter19_f_126_169)">
<path d="M171.241 -635.202L138.167 -607.104L631.114 -26.8566L976.477 359.948L664.188 -54.9546L171.241 -635.202Z" fill="url(#paint13_linear_126_169)"/>
</g>
<g style="mix-blend-mode:overlay" filter="url(#filter20_f_126_169)">
<path d="M456.517 -389.945L422.611 -362.856L897.852 231.98L1231.4 629.015L931.757 204.891L456.517 -389.945Z" fill="url(#paint14_linear_126_169)"/>
</g>
</g>
</g>
<defs>
<filter id="filter0_f_126_169" x="301.408" y="-156.378" width="1544.66" height="1544.66" filterUnits="userSpaceOnUse" color-interpolation-filters="sRGB">
<feFlood flood-opacity="0" result="BackgroundImageFix"/>
<feBlend mode="normal" in="SourceGraphic" in2="BackgroundImageFix" result="shape"/>
<feGaussianBlur stdDeviation="111.964" result="effect1_foregroundBlur_126_169"/>
</filter>
<filter id="filter1_f_126_169" x="592.962" y="-81.586" width="1033.21" height="1033.21" filterUnits="userSpaceOnUse" color-interpolation-filters="sRGB">
<feFlood flood-opacity="0" result="BackgroundImageFix"/>
<feBlend mode="normal" in="SourceGraphic" in2="BackgroundImageFix" result="shape"/>
<feGaussianBlur stdDeviation="33.5893" result="effect1_foregroundBlur_126_169"/>
</filter>
<filter id="filter2_f_126_169" x="596.993" y="-77.5551" width="1025.14" height="1025.14" filterUnits="userSpaceOnUse" color-interpolation-filters="sRGB">
<feFlood flood-opacity="0" result="BackgroundImageFix"/>
<feBlend mode="normal" in="SourceGraphic" in2="BackgroundImageFix" result="shape"/>
<feGaussianBlur stdDeviation="0.895713" result="effect1_foregroundBlur_126_169"/>
</filter>
<filter id="filter3_f_126_169" x="570.035" y="211.681" width="1203.24" height="936.086" filterUnits="userSpaceOnUse" color-interpolation-filters="sRGB">
<feFlood flood-opacity="0" result="BackgroundImageFix"/>
<feBlend mode="normal" in="SourceGraphic" in2="BackgroundImageFix" result="shape"/>
<feGaussianBlur stdDeviation="91.7109" result="effect1_foregroundBlur_126_169"/>
</filter>
<filter id="filter4_f_126_169" x="197.505" y="-575.572" width="1515.55" height="1515.55" filterUnits="userSpaceOnUse" color-interpolation-filters="sRGB">
<feFlood flood-opacity="0" result="BackgroundImageFix"/>
<feBlend mode="normal" in="SourceGraphic" in2="BackgroundImageFix" result="shape"/>
<feGaussianBlur stdDeviation="134.357" result="effect1_foregroundBlur_126_169"/>
</filter>
<filter id="filter5_f_126_169" x="-143.314" y="-1128.67" width="1686.18" height="1686.18" filterUnits="userSpaceOnUse" color-interpolation-filters="sRGB">
<feFlood flood-opacity="0" result="BackgroundImageFix"/>
<feBlend mode="normal" in="SourceGraphic" in2="BackgroundImageFix" result="shape"/>
<feGaussianBlur stdDeviation="156.75" result="effect1_foregroundBlur_126_169"/>
</filter>
<filter id="filter6_f_126_169" x="60.8531" y="-623.204" width="1112.68" height="1123.19" filterUnits="userSpaceOnUse" color-interpolation-filters="sRGB">
<feFlood flood-opacity="0" result="BackgroundImageFix"/>
<feBlend mode="normal" in="SourceGraphic" in2="BackgroundImageFix" result="shape"/>
<feGaussianBlur stdDeviation="49.4135" result="effect1_foregroundBlur_126_169"/>
</filter>
<filter id="filter7_f_126_169" x="225.059" y="-789.375" width="1006.45" height="1216.61" filterUnits="userSpaceOnUse" color-interpolation-filters="sRGB">
<feFlood flood-opacity="0" result="BackgroundImageFix"/>
<feBlend mode="normal" in="SourceGraphic" in2="BackgroundImageFix" result="shape"/>
<feGaussianBlur stdDeviation="49.4135" result="effect1_foregroundBlur_126_169"/>
</filter>
<filter id="filter8_f_126_169" x="-137.452" y="-626.659" width="1187.74" height="1041.92" filterUnits="userSpaceOnUse" color-interpolation-filters="sRGB">
<feFlood flood-opacity="0" result="BackgroundImageFix"/>
<feBlend mode="normal" in="SourceGraphic" in2="BackgroundImageFix" result="shape"/>
<feGaussianBlur stdDeviation="49.4135" result="effect1_foregroundBlur_126_169"/>
</filter>
<filter id="filter9_f_126_169" x="246.458" y="-629.209" width="921.238" height="1131.41" filterUnits="userSpaceOnUse" color-interpolation-filters="sRGB">
<feFlood flood-opacity="0" result="BackgroundImageFix"/>
<feBlend mode="normal" in="SourceGraphic" in2="BackgroundImageFix" result="shape"/>
<feGaussianBlur stdDeviation="28.1114" result="effect1_foregroundBlur_126_169"/>
</filter>
<filter id="filter10_f_126_169" x="68.0416" y="-630.286" width="1097.95" height="1137.5" filterUnits="userSpaceOnUse" color-interpolation-filters="sRGB">
<feFlood flood-opacity="0" result="BackgroundImageFix"/>
<feBlend mode="normal" in="SourceGraphic" in2="BackgroundImageFix" result="shape"/>
<feGaussianBlur stdDeviation="49.4135" result="effect1_foregroundBlur_126_169"/>
</filter>
<filter id="filter11_f_126_169" x="225.059" y="-789.375" width="1006.45" height="1216.61" filterUnits="userSpaceOnUse" color-interpolation-filters="sRGB">
<feFlood flood-opacity="0" result="BackgroundImageFix"/>
<feBlend mode="normal" in="SourceGraphic" in2="BackgroundImageFix" result="shape"/>
<feGaussianBlur stdDeviation="49.4135" result="effect1_foregroundBlur_126_169"/>
</filter>
<filter id="filter12_f_126_169" x="246.458" y="-629.209" width="921.238" height="1131.41" filterUnits="userSpaceOnUse" color-interpolation-filters="sRGB">
<feFlood flood-opacity="0" result="BackgroundImageFix"/>
<feBlend mode="normal" in="SourceGraphic" in2="BackgroundImageFix" result="shape"/>
<feGaussianBlur stdDeviation="28.1114" result="effect1_foregroundBlur_126_169"/>
</filter>
<filter id="filter13_f_126_169" x="55.7916" y="-618.066" width="1123.06" height="1112.8" filterUnits="userSpaceOnUse" color-interpolation-filters="sRGB">
<feFlood flood-opacity="0" result="BackgroundImageFix"/>
<feBlend mode="normal" in="SourceGraphic" in2="BackgroundImageFix" result="shape"/>
<feGaussianBlur stdDeviation="49.4135" result="effect1_foregroundBlur_126_169"/>
</filter>
<filter id="filter14_f_126_169" x="225.059" y="-789.375" width="1006.45" height="1216.61" filterUnits="userSpaceOnUse" color-interpolation-filters="sRGB">
<feFlood flood-opacity="0" result="BackgroundImageFix"/>
<feBlend mode="normal" in="SourceGraphic" in2="BackgroundImageFix" result="shape"/>
<feGaussianBlur stdDeviation="49.4135" result="effect1_foregroundBlur_126_169"/>
</filter>
<filter id="filter15_f_126_169" x="246.457" y="-629.209" width="921.238" height="1131.41" filterUnits="userSpaceOnUse" color-interpolation-filters="sRGB">
<feFlood flood-opacity="0" result="BackgroundImageFix"/>
<feBlend mode="normal" in="SourceGraphic" in2="BackgroundImageFix" result="shape"/>
<feGaussianBlur stdDeviation="28.1114" result="effect1_foregroundBlur_126_169"/>
</filter>
<filter id="filter16_f_126_169" x="78.483" y="-640.148" width="1076.58" height="1157.44" filterUnits="userSpaceOnUse" color-interpolation-filters="sRGB">
<feFlood flood-opacity="0" result="BackgroundImageFix"/>
<feBlend mode="normal" in="SourceGraphic" in2="BackgroundImageFix" result="shape"/>
<feGaussianBlur stdDeviation="49.4135" result="effect1_foregroundBlur_126_169"/>
</filter>
<filter id="filter17_f_126_169" x="166.167" y="-710.555" width="1006.45" height="1216.61" filterUnits="userSpaceOnUse" color-interpolation-filters="sRGB">
<feFlood flood-opacity="0" result="BackgroundImageFix"/>
<feBlend mode="normal" in="SourceGraphic" in2="BackgroundImageFix" result="shape"/>
<feGaussianBlur stdDeviation="49.4135" result="effect1_foregroundBlur_126_169"/>
</filter>
<filter id="filter18_f_126_169" x="244.817" y="-773.852" width="1006.45" height="1216.61" filterUnits="userSpaceOnUse" color-interpolation-filters="sRGB">
<feFlood flood-opacity="0" result="BackgroundImageFix"/>
<feBlend mode="normal" in="SourceGraphic" in2="BackgroundImageFix" result="shape"/>
<feGaussianBlur stdDeviation="49.4135" result="effect1_foregroundBlur_126_169"/>
</filter>
<filter id="filter19_f_126_169" x="81.9439" y="-691.425" width="950.756" height="1107.6" filterUnits="userSpaceOnUse" color-interpolation-filters="sRGB">
<feFlood flood-opacity="0" result="BackgroundImageFix"/>
<feBlend mode="normal" in="SourceGraphic" in2="BackgroundImageFix" result="shape"/>
<feGaussianBlur stdDeviation="28.1114" result="effect1_foregroundBlur_126_169"/>
</filter>
<filter id="filter20_f_126_169" x="366.388" y="-446.167" width="921.238" height="1131.41" filterUnits="userSpaceOnUse" color-interpolation-filters="sRGB">
<feFlood flood-opacity="0" result="BackgroundImageFix"/>
<feBlend mode="normal" in="SourceGraphic" in2="BackgroundImageFix" result="shape"/>
<feGaussianBlur stdDeviation="28.1114" result="effect1_foregroundBlur_126_169"/>
</filter>
<linearGradient id="paint0_linear_126_169" x1="175.005" y1="-509.015" x2="714.017" y2="28.7118" gradientUnits="userSpaceOnUse">
<stop stop-color="white"/>
<stop offset="1" stop-color="#B34CDC"/>
</linearGradient>
<linearGradient id="paint1_linear_126_169" x1="340.839" y1="-677.004" x2="816.079" y2="-82.1679" gradientUnits="userSpaceOnUse">
<stop stop-color="white"/>
<stop offset="1" stop-color="#B34CDC"/>
</linearGradient>
<linearGradient id="paint2_linear_126_169" x1="-24.708" y1="-511.183" x2="559.455" y2="-22.8834" gradientUnits="userSpaceOnUse">
<stop stop-color="white"/>
<stop offset="1" stop-color="#B34CDC"/>
</linearGradient>
<linearGradient id="paint3_linear_126_169" x1="319.633" y1="-559.442" x2="794.874" y2="35.3936" gradientUnits="userSpaceOnUse">
<stop stop-color="white"/>
<stop offset="1" stop-color="white"/>
</linearGradient>
<linearGradient id="paint4_linear_126_169" x1="182.442" y1="-516.349" x2="712.605" y2="30.1036" gradientUnits="userSpaceOnUse">
<stop stop-color="white"/>
<stop offset="1" stop-color="#B34CDC"/>
</linearGradient>
<linearGradient id="paint5_linear_126_169" x1="340.839" y1="-677.004" x2="816.079" y2="-82.168" gradientUnits="userSpaceOnUse">
<stop stop-color="white"/>
<stop offset="1" stop-color="#B34CDC"/>
</linearGradient>
<linearGradient id="paint6_linear_126_169" x1="319.633" y1="-559.442" x2="794.874" y2="35.3936" gradientUnits="userSpaceOnUse">
<stop stop-color="white"/>
<stop offset="1" stop-color="white"/>
</linearGradient>
<linearGradient id="paint7_linear_126_169" x1="169.764" y1="-503.699" x2="715.012" y2="27.7022" gradientUnits="userSpaceOnUse">
<stop stop-color="white"/>
<stop offset="1" stop-color="#B34CDC"/>
</linearGradient>
<linearGradient id="paint8_linear_126_169" x1="340.839" y1="-677.004" x2="816.079" y2="-82.1679" gradientUnits="userSpaceOnUse">
<stop stop-color="white"/>
<stop offset="1" stop-color="#B34CDC"/>
</linearGradient>
<linearGradient id="paint9_linear_126_169" x1="319.633" y1="-559.442" x2="794.873" y2="35.3936" gradientUnits="userSpaceOnUse">
<stop stop-color="white"/>
<stop offset="1" stop-color="white"/>
</linearGradient>
<linearGradient id="paint10_linear_126_169" x1="193.231" y1="-526.578" x2="710.555" y2="32.045" gradientUnits="userSpaceOnUse">
<stop stop-color="white"/>
<stop offset="0.557292" stop-color="#003DFF"/>
<stop offset="1" stop-color="#DA4CDC"/>
</linearGradient>
<linearGradient id="paint11_linear_126_169" x1="281.947" y1="-598.184" x2="757.187" y2="-3.34808" gradientUnits="userSpaceOnUse">
<stop stop-color="white"/>
<stop offset="0.557292" stop-color="#003DFF"/>
<stop offset="1" stop-color="#DA4CDC"/>
</linearGradient>
<linearGradient id="paint12_linear_126_169" x1="360.597" y1="-661.481" x2="835.837" y2="-66.645" gradientUnits="userSpaceOnUse">
<stop stop-color="white"/>
<stop offset="1" stop-color="#B34CDC"/>
</linearGradient>
<linearGradient id="paint13_linear_126_169" x1="154.704" y1="-621.153" x2="647.651" y2="-40.9056" gradientUnits="userSpaceOnUse">
<stop stop-color="white"/>
<stop offset="1" stop-color="white"/>
</linearGradient>
<linearGradient id="paint14_linear_126_169" x1="439.564" y1="-376.4" x2="914.805" y2="218.436" gradientUnits="userSpaceOnUse">
<stop stop-color="white"/>
<stop offset="1" stop-color="white"/>
</linearGradient>
<clipPath id="clip0_126_169">
<rect width="1400" height="724" fill="white" transform="matrix(-1 0 0 1 1400 0)"/>
</clipPath>
</defs>
</svg>
